<svg width="100%" min-height="0" viewBox="0 0 1309 1309" fill="none"
    xmlns="http://www.w3.org/2000/svg">
    <g id="lotus">
        <g id="lotus_2">
            <path id="Vector" fill-rule="evenodd" clip-rule="evenodd" d="M543.334 1120.41C543.724 1123.06 544.176 1125.7 544.69 1128.34C558.951 1201.63 618.331 1259.87 702.972 1295C761.772 1239.87 767.726 1195.22 763.903 1129.62C746.879 1165.31 748.74 1179.79 703.037 1211.86C630.907 1192.97 568.826 1161.52 543.334 1120.41V1120.41Z" fill="url(#paint0_linear_1_2)" />
            <path id="Vector_2" fill-rule="evenodd" clip-rule="evenodd" d="M222.851 795.437C225.626 802.515 228.613 809.528 231.815 816.471C208.017 828.934 184.324 846.205 161.434 867.611C174.779 932.527 202.747 983.467 243.47 1011.07C240.737 1010.38 238.011 1009.63 235.292 1008.82C159.934 986.572 104.303 927.35 75.0953 849.42C121.288 817.559 172.084 798.486 222.851 795.437Z" fill="url(#paint1_linear_1_2)" />
            <path id="Vector_3" fill-rule="evenodd" clip-rule="evenodd" d="M1085.35 802.28C1082.69 809.398 1079.82 816.459 1076.74 823.447C1100.75 835.543 1124.73 852.444 1147.98 873.497C1135.75 938.607 1108.65 989.974 1068.4 1018.2C1071.12 1017.47 1073.83 1016.68 1076.54 1015.83C1151.51 992.418 1206.13 932.346 1234 853.972C1216.75 842.477 1198.91 832.732 1180.69 824.899C1149.58 811.511 1117.4 803.707 1085.35 802.28V802.28Z" fill="url(#paint2_linear_1_2)" />
            <path id="Vector_4" fill-rule="evenodd" clip-rule="evenodd" d="M693.772 1039.83C711.593 1074.75 740.123 1104.34 778.165 1126.06C807.407 1142.76 842.269 1154.8 882.217 1161.05C906.679 1164.87 931.857 1166.33 957.373 1165.62C990.766 1164.69 1024.73 1160.03 1058.41 1152.06C1097.84 1142.74 1136.87 1128.87 1174.14 1111.13C1187.23 1118.98 1133.77 1085.55 1120.28 1072.38C1081.67 1034.67 1046.55 1003.57 978.976 986.612C976.936 986.101 950.666 982.677 948.555 982.385C993.76 1001.55 1054.25 1036.37 1070.48 1076.84C1043.17 1090.9 1031.79 1097.31 1003.28 1105.72C980.187 1112.54 940.036 1122.4 917.085 1125.02C887.783 1128.36 858.942 1128.1 831.429 1123.8C766.998 1113.73 720.066 1083.06 693.772 1039.83Z" fill="url(#paint3_linear_1_2)" />
            <path id="Vector_5" fill-rule="evenodd" clip-rule="evenodd" d="M605.931 1039.83C588.109 1074.75 559.58 1104.34 521.537 1126.06C492.297 1142.76 457.434 1154.8 417.486 1161.05C393.024 1164.87 367.847 1166.33 342.33 1165.62C308.938 1164.69 274.974 1160.03 241.294 1152.06C201.867 1142.74 162.83 1128.87 125.567 1111.13C112.473 1118.98 165.937 1085.55 179.421 1072.38C218.034 1034.67 253.158 1003.57 320.727 986.612C322.768 986.101 349.038 982.677 351.149 982.385C305.943 1001.55 245.458 1036.37 229.224 1076.84C256.531 1090.9 267.914 1097.31 296.42 1105.72C319.516 1112.54 359.667 1122.4 382.619 1125.02C411.921 1128.36 440.762 1128.1 468.275 1123.8C532.705 1113.73 579.638 1083.06 605.931 1039.83V1039.83Z" fill="url(#paint4_linear_1_2)" />
            <path id="Vector_6" fill-rule="evenodd" clip-rule="evenodd" d="M398.448 664.765C369.746 659.06 339.46 657.465 308.379 659.911C301.988 694.528 298.518 709.248 301.144 742.049C303.271 768.624 309.919 813.766 318.192 837.966C328.757 868.86 344.411 897.384 365.365 922.434C414.429 981.096 484.781 1011.41 562.816 1014.53C501.58 1015.41 442.585 1002.81 390.224 976.561C349.978 956.389 313.65 928.156 283.226 891.785C264.597 869.512 249.092 845.273 236.631 819.539C220.322 785.863 209.238 749.637 203.216 711.931C196.164 667.79 196.048 621.624 202.616 575.158C184.048 566.321 261.335 603.077 288.614 608.051C325.86 614.843 361.008 621.092 393.334 632.568C394.283 643.434 395.98 654.185 398.448 664.765V664.765Z" fill="url(#paint5_linear_1_2)" />
            <path id="Vector_7" fill-rule="evenodd" clip-rule="evenodd" d="M910.91 664.765C939.611 659.06 969.898 657.465 1000.98 659.911C1007.37 694.528 1010.84 709.248 1008.21 742.049C1006.09 768.624 999.439 813.766 991.166 837.966C980.601 868.86 964.947 897.384 943.993 922.434C894.929 981.096 824.577 1011.41 746.542 1014.53C807.778 1015.41 866.773 1002.81 919.133 976.561C959.379 956.389 995.708 928.156 1026.13 891.785C1044.76 869.512 1060.27 845.273 1072.73 819.539C1089.04 785.863 1100.12 749.637 1106.14 711.931C1113.19 667.79 1113.31 621.624 1106.74 575.158C1125.31 566.321 1048.02 603.077 1020.74 608.051C983.498 614.843 948.35 621.092 916.024 632.568C915.075 643.434 913.377 654.185 910.91 664.765V664.765Z" fill="url(#paint6_linear_1_2)" />
        </g>
        <g id="butterfly">
            <g id="right-wing">
                <rect id="right" x="654.076" y="505.987" width="259.304" height="438.123" fill="transparent" />
                <path id="Vector_8" fill-rule="evenodd" clip-rule="evenodd" d="M667.312 866.014C681.526 904.364 707.513 932.329 742.264 941.198C777.783 950.262 815.84 937.694 848.773 910.015C834.78 870.357 808.42 841.347 772.9 832.283C772.105 832.079 771.312 831.887 770.515 831.706C788.096 843.588 801.184 863.649 808.853 888.778C781.594 913.668 750.489 925.395 721.878 918.093C697.518 911.877 678.835 892.85 667.312 866.014V866.014Z" fill="url(#paint7_linear_1_2)" />
                <path id="Vector_9" fill-rule="evenodd" clip-rule="evenodd" d="M693.772 841.508C738.643 833.876 779.871 817.77 814.224 793.674C840.63 775.152 862.975 751.908 879.796 724.158C890.095 707.165 897.82 689.31 903.098 670.89C910.007 646.785 912.719 621.719 911.513 596.368C910.103 566.69 903.324 536.623 891.618 507.257C903.87 499.017 852.868 533.295 833.676 540.187C778.455 560.017 729.686 577.032 700.333 625.463C699.449 626.921 698.584 628.385 697.739 629.857C730.841 600.242 776.014 582.265 826.945 576.591C836.761 598.269 807.367 663.849 810.325 685.552C812.721 703.136 848.694 676.948 846.247 693.808C843.122 715.334 835.925 735.998 824.343 755.11C797.214 799.868 750.321 829.022 693.772 841.508V841.508Z" fill="url(#paint8_linear_1_2)" />
            </g>
            <g id="left-wing">
                <rect id="left" x="394.772" y="505.987" width="259.304" height="438.123" fill="transparent" />
                <path id="Vector_10" fill-rule="evenodd" clip-rule="evenodd" d="M612.79 841.508C567.919 833.876 526.691 817.77 492.337 793.674C465.932 775.152 443.587 751.908 426.767 724.158C416.467 707.165 408.742 689.31 403.464 670.89C396.555 646.785 393.842 621.719 395.049 596.368C396.459 566.69 403.237 536.623 414.944 507.257C402.692 499.017 453.695 533.295 472.886 540.187C528.107 560.017 576.876 577.032 606.229 625.463C607.113 626.921 607.978 628.385 608.822 629.857C575.721 600.242 530.548 582.265 479.616 576.591C469.8 598.269 499.195 663.849 496.237 685.552C493.841 703.136 457.868 676.948 460.315 693.808C463.44 715.334 470.637 735.998 482.221 755.11C509.348 799.868 556.241 829.022 612.79 841.508Z" fill="url(#paint9_linear_1_2)" />
                <path id="Vector_11" fill-rule="evenodd" clip-rule="evenodd" d="M641.413 866.014C627.201 904.364 601.216 932.329 566.464 941.198C530.943 950.262 492.888 937.694 459.953 910.015C473.945 870.357 500.308 841.347 535.826 832.283C536.62 832.079 537.414 831.887 538.211 831.706C520.63 843.588 507.542 863.649 499.873 888.778C527.131 913.668 558.239 925.395 586.848 918.093C611.207 911.877 629.893 892.85 641.413 866.014V866.014Z" fill="url(#paint10_linear_1_2)" />
            </g>
        </g>
    </g>
    <defs>
        <linearGradient id="paint0_linear_1_2" x1="702.299" y1="1369.36" x2="667.313" y2="1069.19" gradientUnits="userSpaceOnUse">
            <stop stop-color="#260729" />
            <stop offset="1" stop-color="#981CA3" />
        </linearGradient>
        <linearGradient id="paint1_linear_1_2" x1="-10.702" y1="831.706" x2="302.013" y2="880.54" gradientUnits="userSpaceOnUse">
            <stop stop-color="#260729" />
            <stop offset="1" stop-color="#981CA3" />
        </linearGradient>
        <linearGradient id="paint2_linear_1_2" x1="1328.97" y1="847.354" x2="1056.49" y2="904.476" gradientUnits="userSpaceOnUse">
            <stop stop-color="#260729" />
            <stop offset="1" stop-color="#981CA3" />
        </linearGradient>
        <linearGradient id="paint3_linear_1_2" x1="1254.09" y1="990.719" x2="969.759" y2="1184.4" gradientUnits="userSpaceOnUse">
            <stop stop-color="#260729" />
            <stop offset="1" stop-color="#981CA3" />
        </linearGradient>
        <linearGradient id="paint4_linear_1_2" x1="45.6185" y1="990.719" x2="329.945" y2="1184.4" gradientUnits="userSpaceOnUse">
            <stop stop-color="#260729" />
            <stop offset="1" stop-color="#981CA3" />
        </linearGradient>
        <linearGradient id="paint5_linear_1_2" x1="140.253" y1="474.461" x2="679.156" y2="1071.12" gradientUnits="userSpaceOnUse">
            <stop stop-color="#260729" />
            <stop offset="0.42" stop-color="#981CA3" />
            <stop offset="0.71" stop-color="#7B1784" />
            <stop offset="1" stop-color="#260729" />
        </linearGradient>
        <linearGradient id="paint6_linear_1_2" x1="1169.1" y1="474.461" x2="630.2" y2="1071.12" gradientUnits="userSpaceOnUse">
            <stop stop-color="#260729" />
            <stop offset="0.42" stop-color="#981CA3" />
            <stop offset="0.71" stop-color="#7B1784" />
            <stop offset="1" stop-color="#260729" />
        </linearGradient>
        <linearGradient id="paint7_linear_1_2" x1="913.248" y1="944.109" x2="717.314" y2="841.508" gradientUnits="userSpaceOnUse">
            <stop stop-color="#260729" />
            <stop offset="1" stop-color="#981CA3" />
        </linearGradient>
        <linearGradient id="paint8_linear_1_2" x1="924.521" y1="449.408" x2="700.841" y2="736.638" gradientUnits="userSpaceOnUse">
            <stop stop-color="#260729" />
            <stop offset="1" stop-color="#981CA3" />
        </linearGradient>
        <linearGradient id="paint9_linear_1_2" x1="382.04" y1="449.408" x2="605.72" y2="736.638" gradientUnits="userSpaceOnUse">
            <stop stop-color="#260729" />
            <stop offset="1" stop-color="#981CA3" />
        </linearGradient>
        <linearGradient id="paint10_linear_1_2" x1="395.478" y1="944.109" x2="591.413" y2="841.508" gradientUnits="userSpaceOnUse">
            <stop stop-color="#260729" />
            <stop offset="1" stop-color="#981CA3" />
        </linearGradient>

        <style>

            #left-wing {
        transform-box: fill-box;
        transform-origin: right center;
        transform-style: preserve-3d;
        animation: flap 0.25s ease-in-out infinite alternate;
      }

      @keyframes flap {
        0% {
          transform: rotateY(0deg);
        }

        100% {
          transform: rotateY(50deg);
        }
      }

      #right-wing {
        transform-box: fill-box;
        transform-origin: left center;
        transform-style: preserve-3d;
        animation: flap 0.25s ease-in-out infinite alternate;
      }

      #butterfly {
        transform-box: fill-box;
        transform-origin: center;
        animation: away 10s linear infinite;
      }

      @keyframes away {
        0% {
          transform: translateY(0px) scale(1);
        }

        80% {
        }

        100% {
          transform: translateY(-1000px) scale(0.5);
        }
      }
        </style>
    </defs>
</svg>